<svg width="17" height="18" fill="none" xmlns="http://www.w3.org/2000/svg"><path d="M8.5 4.78a4.268 4.268 0 0 0-4.268 4.267A4.245 4.245 0 0 0 8.5 13.315a4.268 4.268 0 0 0 4.268-4.268c0-2.338-1.93-4.268-4.268-4.268Zm0 7.05a2.78 2.78 0 0 1-2.783-2.783C5.717 7.525 6.94 6.3 8.5 6.3a2.74 2.74 0 0 1 2.746 2.746c0 1.558-1.225 2.783-2.746 2.783Zm5.418-7.2a.998.998 0 0 0-1.002-1.001.998.998 0 0 0-1.002 1.002.998.998 0 0 0 1.002 1.002.998.998 0 0 0 1.002-1.002Zm2.82 1.003c-.074-1.336-.37-2.524-1.336-3.488C14.438 1.18 13.25.883 11.914.809 10.541.734 6.422.734 5.05.809c-1.336.074-2.487.37-3.488 1.336C.596 3.109.299 4.297.225 5.633c-.075 1.373-.075 5.492 0 6.865.074 1.336.37 2.486 1.336 3.488 1.002.965 2.152 1.262 3.488 1.336 1.373.075 5.492.075 6.865 0 1.336-.074 2.524-.37 3.488-1.336.965-1.002 1.262-2.152 1.336-3.488.075-1.373.075-5.492 0-6.865Zm-1.781 8.312c-.26.742-.854 1.3-1.559 1.596-1.113.445-3.71.334-4.898.334-1.225 0-3.822.111-4.898-.334a2.814 2.814 0 0 1-1.596-1.596c-.445-1.076-.334-3.674-.334-4.898 0-1.188-.111-3.785.334-4.899A2.862 2.862 0 0 1 3.602 2.59c1.076-.445 3.673-.334 4.898-.334 1.188 0 3.785-.111 4.898.334.706.26 1.262.853 1.559 1.558.445 1.114.334 3.711.334 4.899 0 1.224.111 3.822-.334 4.898Z" fill="#292F36"/></svg>