<svg width="177" height="50" fill="none" xmlns="http://www.w3.org/2000/svg"><path d="M44.88 39v-.4l.8-.32c.533-.187.88-.44 1.04-.76.187-.32.28-.747.28-1.28V15.36c0-.533-.08-.96-.24-1.28-.16-.32-.52-.573-1.08-.76l-.8-.32v-.4h10.28v.4l-.8.32c-.533.187-.893.44-1.08.76-.16.32-.24.747-.24 1.28v20.88c0 .533.08.96.24 1.28.187.293.547.547 1.08.76l.8.32v.4H44.88Zm11.951 0v-.4l.56-.16c.934-.267 1.4-.92 1.4-1.96V23.96c0-.587-.093-1.013-.28-1.28-.186-.293-.546-.493-1.08-.6l-.6-.16v-.4l6.84-2.32.4.4.32 2.4a12.588 12.588 0 0 1 3.16-2.04c1.174-.533 2.334-.8 3.48-.8 1.76 0 3.107.48 4.04 1.44.96.96 1.44 2.427 1.44 4.4v11.52c0 1.04.507 1.693 1.52 1.96l.36.12v.4h-9.44v-.4l.52-.16c.934-.293 1.4-.947 1.4-1.96V23.72c0-1.707-.853-2.56-2.56-2.56-1.173 0-2.453.587-3.84 1.76v13.6c0 1.04.467 1.693 1.4 1.96l.36.12v.4h-9.4Zm30.53.6c-1.707 0-3.04-.427-4-1.28-.933-.853-1.4-2.213-1.4-4.08V20.56H79.2v-.4l.96-.16c.827-.187 1.533-.453 2.12-.8a8.443 8.443 0 0 0 1.8-1.4l3.28-3.64h.4l-.12 5.6h4.48v.8H87.6v14.4c0 .933.2 1.64.6 2.12.427.48.96.72 1.6.72.56 0 1.053-.133 1.48-.4.427-.293.853-.68 1.28-1.16l.4.4a5.898 5.898 0 0 1-2.2 2.16c-.933.533-2.067.8-3.4.8Zm16.776-20.44c1.733 0 3.213.36 4.44 1.08a6.933 6.933 0 0 1 2.8 2.88c.667 1.2 1 2.573 1 4.12 0 .293-.013.6-.04.92a3.56 3.56 0 0 1-.16.8h-11.92c.027 2.88.533 4.96 1.52 6.24 1.013 1.253 2.507 1.88 4.48 1.88 1.333 0 2.413-.213 3.24-.64.827-.427 1.6-1.053 2.32-1.88l.4.36c-.827 1.467-1.933 2.613-3.32 3.44-1.36.827-3 1.24-4.92 1.24-1.893 0-3.573-.4-5.04-1.2-1.467-.827-2.614-2-3.44-3.52-.827-1.52-1.24-3.333-1.24-5.44 0-2.187.48-4.04 1.44-5.56.96-1.547 2.186-2.72 3.68-3.52 1.52-.8 3.107-1.2 4.76-1.2Zm-.12.8c-.773 0-1.44.24-2 .72-.533.453-.96 1.28-1.28 2.48-.293 1.173-.453 2.84-.48 5h6.84c.267-2.907.16-5-.32-6.28-.48-1.28-1.4-1.92-2.76-1.92ZM114.37 39v-.4l.6-.16c.534-.16.894-.4 1.08-.72.214-.32.32-.733.32-1.24V23.96c0-.587-.106-1.013-.32-1.28-.186-.293-.546-.493-1.08-.6l-.6-.16v-.4l6.88-2.32.4.4.36 3.44v.32a8.356 8.356 0 0 1 1.44-2.04 8.473 8.473 0 0 1 2-1.56c.747-.4 1.48-.6 2.2-.6 1.014 0 1.787.28 2.32.84.534.56.8 1.267.8 2.12 0 .907-.266 1.613-.8 2.12-.506.48-1.12.72-1.84.72-1.12 0-2.106-.56-2.96-1.68l-.08-.08c-.266-.373-.573-.573-.92-.6-.346-.053-.666.107-.96.48a3.25 3.25 0 0 0-.68.88c-.16.32-.32.693-.48 1.12v11.16c0 1.067.467 1.733 1.4 2l1.28.36v.4h-10.36Zm17.657 0v-.4l.56-.16c.933-.267 1.4-.92 1.4-1.96V23.96c0-.587-.094-1.013-.28-1.28-.187-.293-.547-.493-1.08-.6l-.6-.16v-.4l6.84-2.32.4.4.32 2.4a12.571 12.571 0 0 1 3.16-2.04c1.173-.533 2.333-.8 3.48-.8 1.76 0 3.106.48 4.04 1.44.96.96 1.44 2.427 1.44 4.4v11.52c0 1.04.506 1.693 1.52 1.96l.36.12v.4h-9.44v-.4l.52-.16c.933-.293 1.4-.947 1.4-1.96V23.72c0-1.707-.854-2.56-2.56-2.56-1.174 0-2.454.587-3.84 1.76v13.6c0 1.04.466 1.693 1.4 1.96l.36.12v.4h-9.4Zm33.245.6c-2.027 0-3.787-.413-5.28-1.24-1.494-.853-2.654-2.053-3.48-3.6-.8-1.547-1.2-3.36-1.2-5.44 0-2.08.426-3.88 1.28-5.4.88-1.52 2.066-2.693 3.56-3.52 1.52-.827 3.226-1.24 5.12-1.24 1.893 0 3.586.413 5.08 1.24 1.493.8 2.666 1.96 3.52 3.48.88 1.52 1.32 3.333 1.32 5.44s-.414 3.933-1.24 5.48a8.675 8.675 0 0 1-3.44 3.56c-1.467.827-3.214 1.24-5.24 1.24Zm0-.8c.933 0 1.68-.267 2.24-.8.56-.533.96-1.48 1.2-2.84.266-1.36.4-3.28.4-5.76 0-2.507-.134-4.44-.4-5.8-.24-1.36-.64-2.307-1.2-2.84-.56-.533-1.307-.8-2.24-.8-.934 0-1.694.267-2.28.8-.56.533-.974 1.48-1.24 2.84-.24 1.36-.36 3.293-.36 5.8 0 2.48.12 4.4.36 5.76.266 1.36.68 2.307 1.24 2.84.586.533 1.346.8 2.28.8Z" fill="#292F36"/><path d="M0 42h13.459V32.5a3.644 3.644 0 0 1 3.645-3.645 3.644 3.644 0 0 1 3.644 3.645V42h13.25V8C15.22 8 0 23.221 0 42Z" fill="#CDA274"/></svg>