<svg width="18" height="15" fill="none" xmlns="http://www.w3.org/2000/svg"><path d="M16.137 3.766a7.818 7.818 0 0 0 1.828-1.899 6.918 6.918 0 0 1-2.11.563A3.607 3.607 0 0 0 17.473.39a7.798 7.798 0 0 1-2.32.915 3.691 3.691 0 0 0-2.708-1.16 3.69 3.69 0 0 0-3.691 3.69c0 .282.035.563.105.845A10.71 10.71 0 0 1 1.23.813a3.59 3.59 0 0 0-.492 1.863c0 1.265.633 2.39 1.653 3.058C1.793 5.7 1.195 5.56.703 5.277v.035a3.696 3.696 0 0 0 2.953 3.622c-.281.07-.633.14-.949.14-.246 0-.457-.035-.703-.07.457 1.476 1.828 2.531 3.445 2.566a7.422 7.422 0 0 1-4.57 1.582c-.317 0-.598-.035-.879-.07 1.617 1.055 3.55 1.652 5.66 1.652 6.785 0 10.477-5.59 10.477-10.476v-.492Z" fill="#292F36"/></svg>